<?xml version="1.0" encoding="iso-8859-1"?>
<!-- Uploaded to: SVG Repo, www.svgrepo.com, Generator: SVG Repo Mixer Tools -->
<!DOCTYPE svg PUBLIC "-//W3C//DTD SVG 1.1//EN" "http://www.w3.org/Graphics/SVG/1.1/DTD/svg11.dtd">
<svg fill="#0a4334" height="800px" width="800px" version="1.1" id="Capa_1" xmlns="http://www.w3.org/2000/svg" xmlns:xlink="http://www.w3.org/1999/xlink"
	 viewBox="0 0 431.98 431.98" xml:space="preserve">
<g>
	<path style="stroke:#0a4334;fill:#0a4334;" d="M59.374,271.944h18.214c0,0,2.46-0.09,2.46,1.598c0,18.602,0,74.408,0,74.408c0,4.142,3.358,7.5,7.5,7.5s7.5-3.358,7.5-7.5
		v-79.506c0-6.341-5.159-11.5-11.5-11.5h-3.21c0,0-3.318,0.255-2.984-0.09c1.165-1.201,3.335-2.615,3.335-2.615l131.662-102.517
		c0,0,2.487-1.712,3.64-1.712c1.246,0,3.93,1.94,3.93,1.94l132.114,102.866c0,0,3.055,2.127-2.07,2.127c-0.382,0-1.531,0-1.531,0
		c-6.341,0-11.5,5.159-11.5,11.5v80.172c0,4.143,3.358,7.5,7.5,7.5c4.142,0,7.5-3.357,7.5-7.5V273.74c0,0-0.281-1.796,1.719-1.796
		c4.739,0,18.956,0,18.956,0c5.164,0,8.031-2.988,8.991-5.786c0.96-2.797,0.535-6.916-3.54-10.089l-29.524-22.988
		c-1.508-1.133-1.265-2.485-1.265-3.225v-50.779c0-6.341-5.159-11.5-11.5-11.5h-34.933c-6.341,0-11.5,5.159-11.5,11.5
		c0,0,0,4.403,0,5.871c0,2.063-1.34,0.996-1.34,0.996l-64.242-50.02c-4.426-3.445-11.101-3.445-15.528,0L53.922,256.069
		c-4.075,3.173-4.5,7.292-3.54,10.089C51.343,268.956,54.209,271.944,59.374,271.944z M304.336,183.823
		c0-1.344,1.065-1.246,1.065-1.246H330.9c0,0,1.369,0.027,1.369,1.371c0,8.482,0,23.859,0,31.813c0,2.5-1.739,0.677-1.739,0.677
		l-25.722-21.36c-0.177-0.229-0.472-0.379-0.472-1.006C304.336,194.071,304.336,186.386,304.336,183.823z"/>
	<path style="stroke:#0a4334;fill:#0a4334;" d="M214.99,320.844c-17.021,0-29.585,8.971-35.377,25.26c-1.388,3.902,0.651,8.191,4.554,9.579
		c0.831,0.296,1.678,0.435,2.513,0.435c3.084,0,5.974-1.917,7.066-4.989c3.658-10.285,10.607-15.285,21.244-15.285
		c11.113,0,18.521,4.934,22.647,15.084c1.559,3.837,5.937,5.684,9.772,4.124c3.837-1.561,5.684-5.936,4.123-9.772
		C245.127,329.521,232.149,320.844,214.99,320.844z"/>
	<path style="stroke:#0a4334;fill:#0a4334;" d="M312.985,264.859c1.833,0,3.643-0.837,4.821-2.422c1.976-2.66,1.422-6.418-1.238-8.395l-92.187-68.49
		c-4.794-3.561-12.013-3.547-16.794,0.034l-91.376,68.471c-2.652,1.987-3.191,5.748-1.204,8.399c1.987,2.652,5.748,3.191,8.4,1.204
		l91.375-68.471c0.513-0.384,1.929-0.388,2.443-0.005l92.187,68.49C310.487,264.475,311.742,264.859,312.985,264.859z"/>
	<path style="stroke:#0a4334;fill:#0a4334;" d="M412.857,363.406c-9.334-3.012-22.645-5.748-39.56-8.133c-4.099-0.576-7.895,2.278-8.474,6.38
		c-0.578,4.102,2.278,7.896,6.38,8.474c20.161,2.842,31.685,5.726,38.205,7.939c2.013,0.684,2.578,2.763,1.086,3.298
		c-7.754,2.783-23.646,6.77-55.717,10.374c-38.075,4.281-87.364,6.639-138.788,6.639c-51.423,0-100.712-2.357-138.788-6.639
		c-31.937-3.59-47.83-7.558-55.62-10.339c-1.537-0.549-1.74-2.357-0.379-2.852c6.172-2.246,17.709-5.31,38.987-8.335
		c4.101-0.583,6.953-4.381,6.37-8.482c-0.583-4.101-4.377-6.955-8.481-6.37c-16.737,2.38-29.904,5.107-39.134,8.104
		C10.125,366.329,0,370.786,0,379.898c0,9.656,11.631,14.321,21.765,17.307c10.89,3.207,26.324,6.069,45.873,8.505
		c39.676,4.943,92.361,7.666,148.352,7.666c55.991,0,108.676-2.723,148.352-7.666c19.55-2.436,34.984-5.298,45.874-8.505
		c10.133-2.985,21.765-7.65,21.765-17.307C431.98,370.75,421.761,366.279,412.857,363.406z"/>
	<path style="stroke:#0a4334;fill:#0a4334;" d="M143.527,137.168c13.279,0,24.082-10.803,24.082-24.082c0-8.036-5.32-17.8-7.607-21.625
		c-8.589-14.363-14.525-14.363-16.475-14.363c-5.417,0-11.02,4.846-16.653,14.401c-1.743,2.957-7.43,13.252-7.43,21.587
		C119.444,126.365,130.248,137.168,143.527,137.168z M143.443,92.212c5.833,0.01,10.167,15.614,10.167,20.874
		c0,5.56-4.523,10.082-10.082,10.082c-5.56,0-10.083-4.522-10.083-10.082C133.444,107.69,137.733,92.202,143.443,92.212z"/>
	<path style="stroke:#0a4334;fill:#0a4334;" d="M288.453,137.168c13.279,0,24.083-10.803,24.083-24.082c0-8.036-5.32-17.8-7.607-21.625
		c-8.589-14.363-14.525-14.363-16.476-14.363c-5.417,0-11.019,4.846-16.652,14.401c-1.743,2.957-7.43,13.252-7.43,21.587
		C264.371,126.365,275.174,137.168,288.453,137.168z M288.369,92.212c5.834,0.01,10.167,15.614,10.167,20.874
		c0,5.56-4.523,10.082-10.083,10.082c-5.559,0-10.082-4.522-10.082-10.082C278.371,107.69,282.659,92.202,288.369,92.212z"/>
	<path style="stroke:#0a4334;fill:#0a4334;" d="M215.99,78.674c13.279,0,24.083-10.803,24.083-24.082c0-8.036-5.32-17.8-7.607-21.624
		c-8.589-14.363-14.525-14.363-16.476-14.363c-5.416,0-11.019,4.845-16.652,14.4c-1.743,2.957-7.43,13.252-7.43,21.587
		C191.908,67.871,202.711,78.674,215.99,78.674z M215.906,33.719c5.834,0.01,10.167,15.613,10.167,20.873
		c0,5.56-4.523,10.082-10.083,10.082c-5.559,0-10.082-4.523-10.082-10.082C205.908,49.196,210.196,33.709,215.906,33.719z"/>
	<path style="stroke:#0a4334;fill:#0a4334;" d="M84.327,78.674c13.279,0,24.083-10.803,24.083-24.082c0-8.036-5.32-17.8-7.607-21.624
		c-8.589-14.363-14.525-14.363-16.476-14.363c-5.417,0-11.019,4.845-16.652,14.4c-1.743,2.957-7.43,13.252-7.43,21.587
		C60.245,67.871,71.048,78.674,84.327,78.674z M84.243,33.719c5.833,0.01,10.167,15.613,10.167,20.873
		c0,5.56-4.523,10.082-10.083,10.082c-5.559,0-10.082-4.523-10.082-10.082C74.245,49.196,78.533,33.709,84.243,33.719z"/>
	<path style="stroke:#0a4334;fill:#0a4334;" d="M347.653,78.674c13.279,0,24.082-10.803,24.082-24.082c0-8.036-5.32-17.8-7.607-21.624
		c-8.589-14.363-14.524-14.363-16.475-14.363c-5.417,0-11.02,4.845-16.653,14.4c-1.743,2.957-7.43,13.252-7.43,21.587
		C323.57,67.871,334.374,78.674,347.653,78.674z M347.569,33.719c5.833,0.01,10.167,15.613,10.167,20.873
		c0,5.56-4.523,10.082-10.082,10.082c-5.559,0-10.083-4.523-10.083-10.082C337.57,49.196,341.859,33.709,347.569,33.719z"/>
</g>
</svg>
