<?xml version="1.0" standalone="no"?>
<!DOCTYPE svg PUBLIC "-//W3C//DTD SVG 20010904//EN"
 "http://www.w3.org/TR/2001/REC-SVG-20010904/DTD/svg10.dtd">
<svg version="1.0" xmlns="http://www.w3.org/2000/svg"
 width="300.000000pt" height="300.000000pt" viewBox="0 0 655.000000 323.000000"
 preserveAspectRatio="xMidYMid meet">

<g transform="translate(0.000000,323.000000) scale(0.100000,-0.100000)"
fill="#0a4334" stroke="none">
<path d="M3243 3088 c-146 -145 -164 -173 -131 -206 9 -9 146 -12 555 -12 557
0 610 -3 684 -41 128 -65 212 -339 226 -739 12 -356 -42 -656 -147 -814 -28
-40 -50 -79 -50 -84 0 -6 23 -38 50 -71 37 -44 58 -61 75 -61 19 0 235 219
1027 1041 552 573 1007 1052 1012 1065 7 18 5 28 -9 44 -18 20 -23 20 -1583
20 l-1565 0 -144 -142z m3125 33 c-2 -7 -782 -819 -1771 -1845 l-87 -91 34 70
c177 358 180 1137 6 1492 -51 104 -114 164 -208 195 -65 22 -80 23 -572 26
l-505 3 85 79 85 79 1468 1 c874 0 1467 -4 1465 -9z"/>
<path d="M869 2795 c-97 -53 -160 -380 -161 -835 0 -367 36 -643 102 -777 41
-83 61 -93 192 -93 l103 -1 -550 -544 -550 -544 1615 -1 1614 0 206 203 c113
111 354 349 536 530 l331 327 -34 45 -35 44 26 32 c103 122 164 370 173 704 9
310 -31 566 -116 740 -44 91 -81 134 -139 164 l-41 21 -1623 0 c-1365 -1
-1627 -3 -1649 -15z m3061 -167 c-42 -92 -82 -243 -102 -388 -21 -154 -15
-499 11 -645 26 -143 62 -269 102 -347 l29 -58 -1525 0 -1525 0 -14 23 c-98
157 -132 865 -60 1267 17 97 40 175 60 208 l14 22 1525 0 1524 0 -39 -82z
m274 40 c66 -76 122 -258 147 -477 15 -136 7 -475 -15 -596 -22 -120 -71 -274
-106 -329 -35 -55 -89 -84 -126 -68 -54 25 -123 185 -158 368 -64 339 -28 807
79 1030 59 123 116 146 179 72z m-38 -1590 c5 -7 -171 -188 -482 -494 l-489
-483 -1467 -1 c-808 0 -1468 4 -1468 8 0 5 44 51 97 103 54 52 277 271 497
487 l399 392 1453 0 c1108 0 1455 -3 1460 -12z"/>
<path d="M4078 2420 c-34 -26 -61 -87 -84 -185 -15 -64 -19 -120 -19 -285 0
-218 14 -314 57 -408 53 -113 147 -107 198 13 75 174 74 623 0 792 -38 87 -98
116 -152 73z m87 -153 c27 -92 38 -217 32 -377 -6 -155 -23 -253 -53 -312
l-16 -32 -13 25 c-74 140 -78 565 -8 740 15 39 17 40 30 23 7 -10 20 -41 28
-67z"/>
</g>
</svg>
