<?xml version="1.0" standalone="no"?>
<!DOCTYPE svg PUBLIC "-//W3C//DTD SVG 20010904//EN"
 "http://www.w3.org/TR/2001/REC-SVG-20010904/DTD/svg10.dtd">
<svg version="1.0" xmlns="http://www.w3.org/2000/svg"
 width="300.000000pt" height="300.000000pt" viewBox="0 0 533.000000 230.000000"
 preserveAspectRatio="xMidYMid meet">

<g transform="translate(0.000000,230.000000) scale(0.100000,-0.100000)"
fill="#0a4334" stroke="none">
<path d="M977 2238 c-19 -35 -220 -427 -447 -873 -227 -445 -439 -860 -471
-921 -39 -73 -59 -123 -59 -146 0 -28 44 -174 75 -251 20 -49 -51 -47 1678
-47 1587 0 1615 0 1639 20 15 11 221 376 489 864 255 465 466 842 470 838 3
-4 161 -326 350 -717 211 -435 356 -723 375 -744 27 -30 38 -35 90 -39 50 -3
64 0 93 20 47 32 73 83 68 133 -3 27 -152 341 -451 949 -373 760 -453 915
-484 942 l-37 33 -1672 1 -1672 0 -34 -62z m551 -218 l-103 -200 -282 0 c-156
0 -283 2 -283 5 0 3 44 93 97 200 l98 195 288 0 288 0 -103 -200z m660 0
l-103 -200 -282 0 c-156 0 -283 3 -283 6 0 4 45 94 101 200 l100 194 285 0
286 0 -104 -200z m662 0 l-102 -200 -284 0 c-156 0 -284 2 -284 5 0 2 45 92
101 200 l101 195 284 0 285 0 -101 -200z m660 0 l-100 -200 -286 0 c-157 0
-284 3 -282 8 2 4 47 94 101 200 l97 192 285 0 285 0 -100 -200z m701 98 c-32
-57 -82 -146 -111 -198 -30 -52 -58 -98 -64 -102 -14 -10 -153 -10 -369 -1
l-166 6 100 199 99 198 285 0 284 0 -58 -102z m589 -849 c431 -875 443 -902
429 -928 -18 -33 -68 -41 -90 -14 -9 10 -188 375 -399 811 -211 435 -388 788
-392 784 -5 -5 -233 -418 -508 -918 l-498 -909 -1592 0 -1592 0 -29 75 c-15
41 -28 83 -28 93 -1 16 81 17 1588 17 l1590 0 117 208 c64 114 136 239 159
277 49 82 243 424 305 540 85 159 242 430 259 450 10 11 52 85 94 165 107 205
131 250 138 250 3 0 205 -406 449 -901z m-3810 465 c0 -4 -46 -96 -102 -205
l-103 -199 -88 0 c-66 0 -88 3 -85 13 2 6 47 99 101 205 l97 192 90 0 c50 0
90 -3 90 -6z m660 0 c0 -4 -46 -96 -102 -205 l-101 -199 -285 0 c-178 0 -282
4 -280 10 2 5 48 97 103 204 l100 196 283 0 c155 0 282 -3 282 -6z m660 1 c0
-3 -45 -95 -100 -205 l-100 -200 -286 0 c-157 0 -284 4 -282 8 11 28 193 379
201 390 7 9 77 12 288 12 154 0 279 -2 279 -5z m658 -7 c-2 -7 -47 -100 -101
-205 l-97 -193 -285 0 -285 0 96 193 c53 105 101 198 106 205 15 18 571 18
566 0z m670 5 c-2 -5 -48 -97 -103 -205 l-100 -198 -287 0 -288 0 71 143 c39
78 87 170 106 205 l35 62 285 0 c156 0 283 -3 281 -7z m352 0 c0 -3 -50 -96
-112 -205 l-112 -198 -123 0 -123 0 91 182 c50 100 98 192 106 205 15 22 20
23 144 23 71 0 129 -3 129 -7z m-3020 -683 l-100 -200 -256 0 c-141 0 -254 3
-252 8 2 4 47 94 101 200 l98 192 254 0 255 0 -100 -200z m758 193 c-2 -5 -47
-95 -101 -200 l-97 -193 -285 0 -285 0 100 200 100 200 286 0 c157 0 284 -3
282 -7z m662 2 c0 -2 -45 -92 -101 -200 l-101 -195 -284 0 -285 0 101 200 102
200 284 0 c156 0 284 -2 284 -5z m660 -1 c0 -4 -45 -94 -101 -200 l-100 -194
-285 0 -286 0 104 200 103 200 283 0 c155 0 282 -3 282 -6z m637 -52 c-17 -32
-68 -122 -112 -200 l-80 -142 -278 0 -278 0 103 200 103 200 287 0 288 0 -33
-58z m-3177 -428 c0 -4 -45 -94 -101 -200 l-100 -194 -99 0 -98 0 101 200 102
200 98 0 c53 0 97 -3 97 -6z m660 -1 c0 -5 -45 -93 -99 -198 l-98 -190 -287
-3 -287 -2 103 200 103 200 283 0 c155 0 282 -3 282 -7z m660 0 c-1 -5 -44
-93 -98 -198 l-97 -190 -287 -3 -287 -2 102 200 102 200 283 0 c155 0 282 -3
282 -7z m660 0 c-1 -5 -45 -93 -98 -198 l-97 -190 -282 -3 c-156 -1 -283 0
-283 3 0 8 181 369 192 383 8 9 78 12 289 12 154 0 279 -3 279 -7z m570 -193
l-100 -200 -285 0 c-157 0 -285 2 -285 5 0 8 170 346 187 372 l15 23 284 0
284 0 -100 -200z m319 78 c-38 -68 -88 -158 -112 -200 l-42 -78 -87 0 c-49 0
-88 2 -88 5 0 8 181 369 192 383 7 8 42 12 109 12 l98 0 -70 -122z"/>
</g>
</svg>
