<?xml version="1.0" standalone="no"?>
<!DOCTYPE svg PUBLIC "-//W3C//DTD SVG 20010904//EN"
 "http://www.w3.org/TR/2001/REC-SVG-20010904/DTD/svg10.dtd">
<svg version="1.0" xmlns="http://www.w3.org/2000/svg"
 width="512.000000pt" height="512.000000pt" viewBox="0 0 512.000000 512.000000"
 preserveAspectRatio="xMidYMid meet">

<g transform="translate(0.000000,512.000000) scale(0.100000,-0.100000)"
fill="#0a4334" stroke="none">
<path d="M2865 5113 c-16 -2 -86 -17 -155 -33 -69 -16 -177 -34 -240 -40 -122
-13 -152 -20 -79 -20 70 1 234 26 359 56 100 24 135 28 265 27 105 0 135 2
100 8 -52 8 -198 9 -250 2z"/>
<path style="stroke:#0a4334;fill:#0a4334;" d="M2825 5033 c-60 -8 -112 -16 -114 -19 -11 -11 11 -11 89 1 169 25
260 28 360 11 52 -9 103 -19 113 -22 9 -3 17 -1 17 4 0 15 -180 42 -271 41
-46 -1 -133 -8 -194 -16z"/>
<path style="stroke:#0a4334;fill:#0a4334;" d="M4080 4819 l-355 -229 -82 0 -83 0 17 34 c19 41 13 63 -24 77 -34 13
-43 26 -43 65 0 59 -14 66 -151 76 -68 4 -162 18 -209 30 -125 32 -259 30
-365 -6 -65 -22 -108 -29 -230 -36 -152 -8 -219 -19 -310 -47 -113 -35 -114
-86 -5 -152 41 -25 33 -26 -34 -6 -71 22 -142 19 -226 -10 -66 -22 -89 -25
-229 -25 -112 0 -152 3 -144 11 6 6 48 13 94 16 94 6 257 56 322 99 38 25 67
74 67 113 0 28 53 68 113 86 69 21 244 45 335 45 41 0 72 4 72 10 0 12 10 12
-145 0 -270 -22 -377 -64 -392 -152 -11 -69 -55 -106 -173 -142 -30 -9 -64
-22 -75 -28 -11 -6 -63 -14 -117 -18 -70 -5 -103 -11 -116 -23 -17 -15 -62
-17 -480 -17 -455 0 -462 0 -462 -20 0 -20 7 -20 900 -20 l900 0 0 -60 c0 -53
2 -60 20 -60 18 0 20 7 20 60 0 60 0 60 30 60 l30 0 3 -187 2 -188 3 188 2
187 25 0 25 0 0 -135 c0 -83 4 -135 10 -135 6 0 10 52 10 135 l0 135 30 0 30
0 0 -230 c0 -223 1 -230 20 -230 19 0 20 7 20 230 l0 230 25 0 25 0 0 -115 c0
-70 4 -115 10 -115 6 0 10 45 10 115 0 108 1 115 20 115 19 0 20 -8 23 -332
l2 -333 3 333 2 332 30 0 29 0 4 -92 3 -93 2 93 c2 91 2 92 27 92 l24 0 4
-142 3 -143 2 143 2 142 25 0 25 0 0 -100 c0 -60 4 -100 10 -100 6 0 10 40 10
100 l0 100 30 0 30 0 0 -65 c0 -51 3 -65 15 -65 12 0 15 14 15 65 l0 65 40 0
40 0 0 -240 c0 -207 2 -240 15 -240 13 0 15 33 15 240 l0 240 35 0 35 0 0 -90
c0 -53 4 -90 10 -90 6 0 10 37 10 90 0 83 2 90 20 90 18 0 20 -8 23 -142 l3
-143 2 143 2 142 25 0 25 0 0 -145 c0 -122 2 -145 15 -145 13 0 15 23 15 145
l0 145 25 0 25 0 0 -130 c0 -80 4 -130 10 -130 6 0 10 50 10 130 0 122 1 130
19 130 15 0 21 -8 24 -37 l4 -38 1 38 c2 32 5 37 26 37 23 0 25 -4 29 -52 l3
-53 2 53 c2 51 3 52 32 52 l30 0 0 -1860 c0 -1853 0 -1860 20 -1860 20 0 20 7
20 1864 l0 1864 25 16 c13 9 27 16 29 16 3 0 7 -73 8 -162 2 -118 6 -162 16
-166 9 -3 12 37 12 176 l0 180 25 16 c13 9 27 16 30 16 3 0 6 -91 7 -202 l2
-203 6 210 5 209 270 173 c149 96 270 178 269 183 -3 25 -5 30 -11 29 -5 0
-168 -104 -363 -230z m-929 11 c43 -11 131 -24 196 -28 l117 -7 10 -55 c10
-48 15 -57 43 -70 l32 -15 -20 -33 c-12 -17 -25 -32 -30 -32 -5 0 -29 21 -53
46 -32 33 -44 53 -43 73 2 21 -5 29 -33 43 -61 30 -299 55 -307 32 -2 -7 39
-15 116 -22 66 -7 137 -18 158 -25 35 -11 38 -15 35 -44 -3 -27 2 -34 27 -48
17 -8 35 -24 41 -35 10 -18 8 -20 -25 -20 -19 0 -52 10 -73 23 -57 35 -90 47
-127 47 -27 0 -39 7 -62 36 l-27 37 -101 -6 c-109 -6 -225 -25 -225 -36 0 -4
33 -1 73 6 39 7 110 15 157 19 l86 7 27 -37 c22 -29 35 -36 61 -36 34 0 79
-16 126 -45 23 -14 -15 -15 -410 -9 l-435 6 -57 29 c-55 28 -75 45 -65 55 3 3
38 14 79 25 51 14 112 21 203 23 73 2 162 10 203 20 40 9 75 16 78 16 2 0 4 5
4 10 0 14 -56 12 -120 -5 -32 -9 -100 -15 -164 -15 -170 0 -346 -49 -321 -89
4 -7 28 -26 53 -42 61 -39 28 -37 -51 2 -69 35 -127 75 -127 89 0 10 74 34
160 51 30 5 120 14 200 19 117 7 164 15 245 39 88 28 110 31 184 26 46 -3 119
-14 162 -25z m-1013 -237 c-15 -2 -42 -2 -60 0 -18 2 -6 4 27 4 33 0 48 -2 33
-4z"/>
<path style="stroke:#0a4334;fill:#0a4334;" d="M3428 4993 c23 -2 59 -2 80 0 20 2 1 4 -43 4 -44 0 -61 -2 -37 -4z"/>
<path style="stroke:#0a4334;fill:#0a4334;" d="M2770 4954 c-48 -16 -117 -28 -193 -35 -110 -9 -363 -52 -375 -64 -9
-9 14 -6 151 19 73 14 175 27 228 30 62 3 123 14 175 30 43 14 87 26 96 26 9
0 20 5 23 10 10 16 -24 10 -105 -16z"/>
<path style="stroke:#0a4334;fill:#0a4334;" d="M3005 4951 c-3 -6 45 -10 124 -10 143 -1 208 -11 258 -42 41 -26 81
-26 248 -4 71 9 149 14 172 10 28 -4 43 -2 43 4 0 16 -127 14 -244 -4 -136
-20 -169 -19 -224 10 -26 13 -78 29 -117 35 -89 12 -252 13 -260 1z"/>
<path style="stroke:#0a4334;fill:#0a4334;" d="M2002 4838 c-8 -31 -21 -53 -37 -64 -19 -13 -184 -50 -335 -77 -19
-3 -16 -5 11 -6 50 -2 304 54 333 73 26 16 50 74 44 103 -2 10 -9 -3 -16 -29z"/>
<path style="stroke:#0a4334;fill:#0a4334;" d="M3593 4815 c-13 -9 -23 -27 -23 -40 0 -18 8 -26 36 -35 78 -26 259 9
259 49 0 20 -43 30 -155 37 -79 5 -99 3 -117 -11z m220 -12 c51 -8 42 -24 -24
-45 -63 -20 -119 -22 -171 -7 -43 11 -48 30 -15 54 22 16 97 16 210 -2z"/>
<path style="stroke:#0a4334;fill:#0a4334;" d="M3643 4355 c0 -33 2 -45 4 -27 2 18 2 45 0 60 -2 15 -4 0 -4 -33z"/>
<path style="stroke:#0a4334;fill:#0a4334;" d="M3584 4270 c0 -74 1 -105 3 -67 2 37 2 97 0 135 -2 37 -3 6 -3 -68z"/>
<path style="stroke:#0a4334;fill:#0a4334;" d="M3110 4265 c0 -96 3 -115 15 -115 12 0 15 19 15 115 0 96 -3 115 -15
115 -12 0 -15 -19 -15 -115z"/>
<path style="stroke:#0a4334;fill:#0a4334;" d="M3030 4115 c0 -110 4 -175 10 -175 6 0 10 65 10 175 0 110 -4 175
-10 175 -6 0 -10 -65 -10 -175z"/>
<path style="stroke:#0a4334;fill:#0a4334;" d="M2780 4235 c0 -25 5 -45 10 -45 6 0 10 20 10 45 0 25 -4 45 -10 45
-5 0 -10 -20 -10 -45z"/>
<path style="stroke:#0a4334;fill:#0a4334;" d="M3644 4120 c0 -74 1 -105 3 -67 2 37 2 97 0 135 -2 37 -3 6 -3 -68z"/>
<path style="stroke:#0a4334;fill:#0a4334;" d="M3812 4078 c2 -78 7 -113 16 -116 9 -3 12 24 12 112 0 98 -2 116 -15
116 -13 0 -15 -17 -13 -112z"/>
<path style="stroke:#0a4334;fill:#0a4334;" d="M3903 4105 c0 -44 2 -61 4 -37 2 23 2 59 0 80 -2 20 -4 1 -4 -43z"/>
<path style="stroke:#0a4334;fill:#0a4334;" d="M3440 4016 c0 -133 2 -156 15 -156 13 0 15 21 13 152 -2 110 -6 152
-15 156 -10 3 -13 -32 -13 -152z"/>
<path style="stroke:#0a4334;fill:#0a4334;" d="M1290 3524 c-19 -9 -57 -17 -84 -18 -54 -2 -86 -29 -86 -71 0 -26
-44 -111 -72 -138 -29 -29 -24 -82 11 -106 16 -12 33 -21 38 -21 5 0 15 -21
22 -47 9 -35 25 -60 59 -92 105 -98 190 -90 237 22 12 30 20 38 38 35 16 -2
21 -9 20 -26 -3 -25 9 -29 27 -7 7 8 19 15 27 15 8 0 28 7 44 16 61 31 76 133
35 232 -13 31 -29 75 -36 97 -14 46 -37 75 -57 75 -8 0 -27 10 -43 22 -40 29
-131 35 -180 12z m150 -24 c18 -11 14 -14 -28 -26 -19 -5 -33 -13 -32 -19 1
-10 8 -10 71 1 34 6 37 4 47 -26 12 -34 38 -32 29 2 -12 42 9 4 29 -56 20 -60
20 -63 3 -59 -10 3 -21 13 -24 23 -11 34 -45 52 -121 65 -64 12 -83 19 -111
47 l-34 33 28 12 c33 14 122 16 143 3z m-250 -25 c0 -2 -10 -10 -22 -16 -21
-11 -22 -11 -9 4 13 16 31 23 31 12z m65 -15 c3 -5 0 -10 -7 -10 -8 0 -30 -9
-51 -19 -47 -24 -47 -19 0 14 42 28 49 30 58 15z m50 -62 c24 -19 25 -22 10
-30 -25 -15 -102 -13 -121 2 -15 13 -14 16 6 32 30 24 71 23 105 -4z m-175
-48 c-6 -12 -14 -19 -17 -17 -2 3 1 15 7 27 6 12 14 19 17 17 2 -3 -1 -15 -7
-27z m368 -7 c25 -27 17 -43 -20 -43 -13 0 -58 58 -58 76 0 13 58 -12 78 -33z
m-78 -23 c20 -38 20 -40 2 -40 -13 0 -24 13 -35 40 -13 33 -13 40 -1 40 7 0
23 -18 34 -40z m-146 15 c74 0 79 -1 88 -24 10 -29 8 -31 -39 -47 -34 -12 -40
-11 -58 6 -67 63 -156 7 -114 -72 8 -15 8 -19 -1 -16 -20 6 -56 111 -40 116 7
3 22 15 33 28 14 17 26 22 37 17 8 -4 50 -8 94 -8z m272 -81 c14 -32 13 -38
-1 -61 -20 -29 -24 -26 -46 32 -16 42 -16 43 5 53 11 6 22 11 24 11 2 1 10
-15 18 -35z m-456 -14 c16 -39 6 -50 -21 -23 -15 14 -19 27 -14 42 8 26 19 21
35 -19z m158 7 l22 -23 -24 -23 c-13 -13 -32 -21 -42 -19 -21 4 -40 48 -31 72
9 23 50 20 75 -7z m226 -30 c9 -23 16 -46 16 -49 0 -15 -67 -38 -109 -37 -25
0 -39 3 -31 6 30 11 50 36 56 72 12 65 45 69 68 8z m-94 6 c0 -25 -24 -63 -41
-63 -4 0 -12 15 -18 32 -10 28 -9 35 6 45 30 22 53 16 53 -14z m217 -41 c-3
-31 -12 -52 -27 -64 -52 -42 -71 0 -20 44 19 17 30 36 30 53 0 17 4 24 11 19
7 -4 9 -24 6 -52z m-297 -13 c0 -15 -7 -19 -36 -19 l-35 0 28 24 c31 26 43 25
43 -5z m-94 -35 c23 -9 52 -14 74 -11 l35 5 -41 -18 c-23 -10 -49 -28 -57 -41
-14 -19 -18 -20 -32 -9 -18 15 -45 63 -45 80 0 14 21 13 66 -6z m284 -14 c0
-5 -5 -10 -11 -10 -5 0 -7 5 -4 10 3 6 8 10 11 10 2 0 4 -4 4 -10z m-90 -30
c0 -5 -7 -25 -16 -44 -18 -36 -49 -56 -88 -56 -37 0 -38 12 -3 29 21 11 35 27
42 49 7 26 14 32 37 32 15 0 28 -4 28 -10z m-90 -14 c0 -8 -10 -22 -22 -30
-24 -17 -58 -21 -58 -8 0 17 45 48 73 51 4 1 7 -5 7 -13z"/>
<path style="stroke:#0a4334;fill:#0a4334;" d="M2783 3188 c-6 -7 -27 -64 -48 -127 -21 -62 -86 -215 -146 -339 -60
-124 -110 -229 -111 -233 -2 -4 -110 -30 -241 -58 l-238 -51 -243 55 c-245 55
-280 61 -311 48 -10 -3 -87 -87 -171 -186 -149 -174 -154 -181 -154 -224 0
-43 4 -49 82 -130 l82 -84 -39 -147 c-62 -235 -68 -199 84 -547 72 -164 131
-305 131 -311 0 -7 -65 -153 -145 -326 -155 -335 -165 -369 -130 -438 21 -42
78 -81 125 -87 49 -7 122 19 148 52 10 13 94 187 187 387 137 295 169 371 169
408 0 34 -14 77 -57 174 -31 71 -55 131 -54 133 3 3 114 -117 280 -303 l36
-41 11 -329 c6 -181 15 -343 20 -360 25 -74 122 -125 200 -104 53 14 107 69
116 117 4 21 3 205 -2 408 -9 339 -11 373 -29 407 -11 20 -108 134 -215 253
-113 125 -194 223 -193 233 3 20 193 745 196 748 1 1 103 23 227 49 124 26
238 54 254 64 24 13 53 67 162 296 151 315 148 299 58 345 -27 14 -50 25 -51
26 -2 0 13 47 32 103 19 56 31 108 28 116 -6 18 -37 20 -50 3z"/>
<path style="stroke:#0a4334;fill:#0a4334;" d="M2110 3171 c0 -5 15 -12 34 -15 49 -9 84 -41 96 -87 11 -41 30 -53
30 -19 0 39 -29 90 -62 110 -33 20 -98 28 -98 11z"/>
<path style="stroke:#0a4334;fill:#0a4334;" d="M2095 3110 c-6 -10 0 -14 48 -25 20 -4 31 -15 39 -35 5 -17 14 -30
19 -30 13 0 10 42 -4 61 -26 34 -88 51 -102 29z"/>
<path style="stroke:#0a4334;fill:#0a4334;" d="M1810 3051 c-79 -24 -151 -89 -188 -169 -21 -47 -24 -64 -20 -136 5
-98 30 -150 104 -215 142 -125 376 -77 460 94 59 122 37 253 -60 350 -34 34
-68 57 -100 68 -51 17 -151 21 -196 8z m324 -306 c5 -14 -27 -35 -53 -35 -20
0 -89 -61 -101 -89 -13 -33 -17 -35 -38 -22 -12 7 -11 14 3 41 22 43 61 78
110 101 50 22 71 23 79 4z"/>
</g>
</svg>
