<?xml version="1.0" standalone="no"?>
<!DOCTYPE svg PUBLIC "-//W3C//DTD SVG 20010904//EN"
 "http://www.w3.org/TR/2001/REC-SVG-20010904/DTD/svg10.dtd">
<svg version="1.0" xmlns="http://www.w3.org/2000/svg"
 width="300.000000pt" height="300.000000pt" viewBox="0 0 329.000000 413.000000"
 preserveAspectRatio="xMidYMid meet">

<g transform="translate(0.000000,413.000000) scale(0.100000,-0.100000)"
fill="#0a4334" stroke="none">
<path d="M1650 4116 c-71 -20 -148 -64 -199 -111 -25 -23 -62 -50 -81 -60 -82
-41 -100 -86 -59 -152 l21 -34 -26 -58 c-51 -115 -58 -227 -17 -311 l18 -38
-46 32 c-70 50 -107 61 -196 60 -70 0 -93 -5 -183 -42 -340 -138 -677 -415
-806 -662 -53 -103 -70 -165 -71 -260 0 -72 4 -94 27 -142 31 -66 93 -130 159
-164 26 -13 135 -56 241 -95 226 -84 257 -98 289 -136 13 -16 79 -137 147
-270 130 -257 159 -296 227 -309 91 -17 208 40 236 114 24 64 12 112 -101 388
-131 320 -151 364 -193 416 -19 24 -97 83 -189 144 -87 57 -158 107 -158 111
1 8 391 263 402 263 3 0 42 -49 86 -109 112 -150 142 -174 297 -235 128 -50
130 -51 128 -81 -2 -25 5 -36 46 -67 27 -21 54 -38 60 -38 6 0 24 15 41 33
l30 34 53 -14 c96 -25 170 7 208 92 31 67 24 120 -23 171 -18 21 -18 21 38 90
31 38 60 73 65 78 5 6 39 -16 83 -52 41 -34 83 -62 95 -62 26 0 131 123 131
154 0 16 -21 39 -75 82 -68 54 -74 62 -69 87 7 32 -17 64 -72 98 -27 16 -36
17 -57 8 -24 -11 -31 -7 -88 40 -34 29 -69 51 -77 49 -22 -4 -132 -137 -132
-159 0 -9 29 -41 65 -70 36 -29 65 -55 65 -57 0 -3 -32 -45 -71 -93 l-72 -89
-141 73 -140 72 -108 228 c-100 214 -105 227 -75 204 51 -39 112 -66 184 -83
132 -31 242 3 332 102 l50 55 48 -26 c26 -14 58 -25 70 -25 59 0 85 90 41 145
-21 27 -21 28 -4 74 86 223 49 409 -105 531 -93 73 -245 107 -349 76z m249
-101 c132 -72 201 -217 171 -361 -7 -32 -25 -88 -41 -123 -16 -35 -29 -69 -29
-75 1 -6 14 -26 30 -45 16 -19 28 -37 25 -39 -2 -2 -23 9 -47 25 -66 45 -76
47 -101 17 -118 -144 -163 -170 -275 -162 -119 9 -229 74 -271 162 -38 78 -21
210 41 311 24 40 23 57 -7 85 -33 31 -32 46 8 66 17 9 51 34 73 54 99 90 176
122 289 117 66 -3 90 -8 134 -32z m-722 -666 c69 -33 104 -86 213 -318 68
-146 112 -229 133 -249 18 -16 119 -73 225 -126 106 -53 201 -105 212 -116 24
-24 26 -70 5 -109 -27 -52 -69 -54 -191 -8 -415 157 -390 145 -448 207 -29 32
-86 103 -126 159 -54 74 -79 101 -95 101 -23 0 -489 -298 -517 -331 -9 -11
-15 -26 -12 -34 3 -8 88 -68 188 -134 101 -66 195 -134 210 -152 37 -44 48
-67 177 -379 127 -310 135 -345 85 -385 -38 -31 -98 -48 -128 -36 -41 16 -64
52 -188 296 -67 132 -133 253 -148 268 -38 40 -90 65 -302 142 -280 102 -320
126 -366 221 -24 48 -26 63 -22 132 9 152 75 269 253 448 99 98 160 150 253
212 121 81 265 156 366 192 72 26 168 25 223 -1z m993 -420 c88 -71 162 -134
165 -139 3 -5 -5 -21 -18 -36 l-24 -27 -170 139 -171 139 20 28 c11 15 23 27
29 27 5 0 81 -59 169 -131z m-140 -156 c0 -16 -92 -123 -101 -117 -5 3 12 32
38 64 45 55 63 70 63 53z"/>
<path d="M2107 2358 c-378 -266 -689 -491 -692 -501 -5 -12 9 -41 41 -87 46
-67 54 -74 82 -71 13 2 1321 919 1360 954 12 11 22 28 22 37 0 23 -97 150
-114 150 -8 0 -322 -217 -699 -482z m722 337 c-13 -11 -1275 -898 -1284 -902
-7 -2 -19 7 -28 20 l-15 24 646 456 646 455 19 -24 c11 -14 18 -27 16 -29z"/>
<path d="M1855 1704 c-649 -459 -1184 -842 -1188 -850 -10 -18 -16 -8 121
-196 62 -87 120 -158 128 -158 19 0 221 136 389 260 72 53 526 377 1010 720
904 640 963 683 972 707 8 19 -216 353 -236 353 -9 0 -547 -376 -1196 -836z
m1269 616 c59 -90 73 -117 63 -126 -6 -7 -424 -303 -927 -660 -503 -356 -958
-680 -1010 -719 -52 -39 -145 -106 -207 -148 l-111 -77 -81 110 c-45 60 -84
116 -87 123 -3 8 197 155 563 415 312 221 825 583 1138 806 314 222 573 401
576 398 4 -4 41 -59 83 -122z"/>
<path d="M581 1929 c-23 -9 -24 -12 -18 -92 4 -45 14 -146 23 -225 19 -162 33
-194 98 -226 47 -23 167 -27 206 -6 40 21 70 52 70 74 0 20 -291 462 -314 478
-14 10 -35 9 -65 -3z m179 -294 c60 -90 110 -169 110 -174 0 -22 -94 -29 -148
-10 -38 13 -46 37 -62 184 -5 55 -13 115 -16 133 -3 17 -3 32 0 32 3 0 55 -74
116 -165z"/>
<path d="M2047 983 c-4 -3 -7 -221 -7 -483 0 -357 3 -479 12 -488 17 -17 949
-17 966 0 17 17 17 949 0 966 -9 9 -131 12 -488 12 -262 0 -480 -3 -483 -7z
m903 -483 l0 -420 -420 0 -420 0 0 413 c0 228 3 417 7 420 3 4 192 7 420 7
l413 0 0 -420z"/>
<path d="M1187 579 l-77 -39 2 -263 3 -262 95 0 95 0 3 289 c2 288 -1 317 -32
316 -6 -1 -46 -19 -89 -41z m63 -274 l0 -235 -40 0 -40 0 0 215 0 215 38 19
c20 11 38 20 40 21 1 0 2 -106 2 -235z"/>
</g>
</svg>
