<?xml version="1.0" standalone="no"?>
<!DOCTYPE svg PUBLIC "-//W3C//DTD SVG 20010904//EN"
 "http://www.w3.org/TR/2001/REC-SVG-20010904/DTD/svg10.dtd">
<svg version="1.0" xmlns="http://www.w3.org/2000/svg"
 width="300.000000pt" height="300.000000pt" viewBox="0 0 523.000000 382.000000"
 preserveAspectRatio="xMidYMid meet">

<g transform="translate(0.000000,382.000000) scale(0.100000,-0.100000)"
fill="#0a4334" stroke="none">
<path d="M3221 3804 c-73 -20 -136 -55 -208 -118 -33 -29 -74 -58 -92 -66 -31
-12 -61 -54 -61 -83 0 -8 11 -31 25 -51 l25 -37 -19 -37 c-57 -112 -66 -254
-21 -342 l23 -44 -39 33 c-77 68 -174 93 -279 71 -121 -25 -331 -131 -508
-257 -112 -80 -314 -281 -371 -370 -132 -205 -151 -406 -53 -535 57 -74 121
-109 362 -199 215 -80 224 -84 204 -99 -19 -15 -21 -31 -31 -233 -9 -202 -8
-220 9 -255 10 -20 33 -47 51 -59 67 -44 195 -53 249 -17 49 31 47 41 -37 219
-44 93 -80 171 -80 174 1 3 45 -80 98 -185 53 -105 103 -199 111 -208 25 -30
88 -56 134 -56 80 0 167 53 193 117 25 59 17 101 -52 268 -36 88 -92 227 -125
309 -90 224 -108 245 -327 386 -79 51 -140 96 -135 100 18 16 395 260 401 260
4 0 27 -29 52 -63 24 -34 70 -95 103 -134 63 -78 109 -106 279 -169 72 -27 76
-30 71 -55 -4 -23 2 -33 47 -68 28 -23 58 -41 65 -41 7 0 26 15 43 34 l30 35
49 -15 c82 -26 156 -3 194 61 l19 30 0 -46 c0 -57 12 -69 72 -69 l48 0 0 -364
c0 -339 -1 -365 -17 -370 -10 -3 -846 -210 -1857 -461 -1012 -250 -1845 -460
-1853 -466 -18 -15 -19 -299 -1 -317 17 -17 5189 -17 5206 0 9 9 12 204 12
814 0 859 1 840 -47 828 -10 -3 -150 -38 -312 -79 -162 -41 -298 -75 -303 -75
-4 0 -8 110 -8 245 l0 245 53 0 c29 0 58 5 65 12 13 13 18 321 6 352 -5 14
-48 16 -375 16 -203 0 -369 3 -369 6 0 4 16 26 35 50 19 23 35 49 35 58 0 8
-38 46 -84 83 -82 66 -84 69 -79 103 5 33 1 39 -43 73 -50 39 -72 45 -92 25
-9 -9 -18 -7 -39 10 -80 62 -102 74 -118 65 -17 -10 -125 -141 -125 -152 0
-12 15 -27 75 -76 33 -27 62 -50 64 -52 1 -1 -30 -41 -70 -90 -40 -48 -74 -89
-75 -91 -5 -7 -260 127 -277 145 -9 11 -53 96 -96 189 -43 93 -91 194 -106
224 l-27 54 38 -33 c47 -42 122 -76 203 -92 123 -24 218 8 312 103 l57 58 44
-25 c54 -31 82 -31 113 0 32 31 32 70 0 117 l-24 36 24 60 c77 189 46 364 -86
486 -111 103 -240 137 -378 100z m236 -93 c189 -90 246 -298 138 -511 -25 -49
-23 -62 18 -107 31 -35 16 -36 -33 -3 -62 41 -83 39 -119 -14 -39 -57 -104
-112 -149 -127 -51 -17 -167 -6 -230 21 -33 14 -70 42 -102 76 -84 93 -88 190
-15 343 37 77 37 88 -4 125 -28 26 -27 31 16 51 20 10 54 34 77 54 75 66 84
72 143 97 86 35 178 33 260 -5z m-712 -670 c76 -35 108 -83 220 -321 58 -123
116 -235 128 -248 12 -13 115 -70 229 -128 114 -57 214 -114 222 -126 22 -31
20 -59 -7 -99 -21 -31 -27 -34 -73 -33 -30 0 -80 12 -129 31 -44 17 -146 57
-228 88 -81 31 -161 68 -177 81 -16 14 -74 86 -130 160 -78 104 -105 134 -123
133 -12 0 -134 -75 -272 -167 -188 -125 -250 -172 -250 -187 0 -15 46 -50 175
-137 189 -126 256 -188 285 -264 10 -27 65 -162 122 -301 114 -279 121 -312
77 -357 -15 -14 -45 -31 -67 -38 -34 -10 -44 -9 -76 8 -32 17 -49 44 -156 255
-144 282 -162 311 -217 342 -24 14 -144 62 -267 108 -141 52 -239 94 -265 114
-124 94 -143 235 -56 418 116 246 503 559 830 671 63 21 156 20 205 -3z m1009
-430 l164 -135 -21 -27 c-12 -15 -25 -28 -28 -28 -7 -1 -284 223 -323 260 -20
18 -20 19 4 44 13 14 27 24 31 23 4 -2 82 -63 173 -137z m-191 -211 c-45 -55
-63 -70 -63 -52 0 15 93 121 102 116 4 -3 -13 -32 -39 -64z m211 -5 c29 -22
17 -26 -63 -23 l-71 3 31 38 31 37 26 -20 c15 -11 36 -26 46 -35z m-154 -96
l0 -52 -21 26 c-20 26 -20 27 -2 52 10 13 19 25 21 25 1 0 2 -23 2 -51z m990
-113 l0 -114 -56 -4 c-33 -3 -60 -11 -65 -19 -5 -8 -9 -150 -9 -315 0 -267 2
-303 16 -315 14 -12 62 -2 335 68 l319 81 0 -744 0 -744 -2535 0 -2535 0 0 98
0 97 1857 460 c1021 253 1862 466 1870 473 10 11 13 96 13 420 0 224 -4 413
-9 421 -5 7 -32 16 -60 19 l-51 5 0 113 0 114 455 0 455 0 0 -114z m-2256
-834 c47 -101 86 -186 86 -189 0 -3 -29 -3 -65 -1 -45 3 -73 10 -92 25 -26 19
-28 26 -31 104 -3 78 6 255 13 247 1 -2 41 -85 89 -186z"/>
<path d="M4258 1403 c-31 -35 -98 -175 -98 -204 0 -68 55 -122 125 -122 69 0
125 54 125 121 0 16 -19 64 -41 108 -45 86 -66 114 -84 114 -7 0 -19 -8 -27
-17z m52 -205 c0 -14 -31 -21 -42 -10 -7 7 -6 17 2 33 12 22 13 22 26 4 8 -10
14 -23 14 -27z"/>
<path d="M3866 1206 c-25 -46 -49 -97 -52 -113 -8 -42 19 -99 58 -123 50 -31
100 -26 144 12 l37 33 -27 -50 c-30 -58 -32 -84 -10 -130 41 -88 164 -95 214
-13 31 51 25 90 -27 189 -63 116 -79 122 -130 43 -10 -17 -12 -14 -13 21 -1
28 -15 66 -48 125 -39 69 -52 86 -74 88 -23 3 -31 -6 -72 -82z m89 -117 c5
-13 2 -25 -6 -30 -17 -10 -29 -2 -29 20 0 35 25 42 35 10z m195 -201 c0 -11
-29 -22 -37 -15 -3 3 -2 19 2 34 6 27 7 27 21 9 8 -11 14 -24 14 -28z"/>
</g>
</svg>
