<?xml version="1.0" standalone="no"?>
<!DOCTYPE svg PUBLIC "-//W3C//DTD SVG 20010904//EN"
 "http://www.w3.org/TR/2001/REC-SVG-20010904/DTD/svg10.dtd">
<svg version="1.0" xmlns="http://www.w3.org/2000/svg"
 width="300.000000pt" height="300.000000pt" viewBox="0 0 445.000000 433.000000"
 preserveAspectRatio="xMidYMid meet">

<g transform="translate(0.000000,433.000000) scale(0.100000,-0.100000)"
fill="#0a4334" stroke="none">
<path d="M3800 4320 c-86 -15 -206 -80 -273 -147 -73 -74 -95 -107 -172 -261
-36 -70 -85 -153 -110 -185 -83 -104 -215 -187 -372 -232 -48 -14 -105 -35
-126 -45 -66 -35 -197 -131 -197 -146 0 -7 31 -47 68 -88 77 -85 112 -147 112
-200 0 -29 -9 -46 -40 -80 -50 -54 -176 -121 -244 -130 -90 -11 -96 -34 -28
-112 52 -60 67 -64 173 -44 55 10 56 10 122 -32 205 -131 249 -152 335 -156
58 -3 90 1 160 23 48 15 104 36 125 46 20 11 37 17 37 15 0 -2 -29 -28 -65
-56 -36 -28 -65 -55 -65 -59 0 -4 14 -14 32 -23 l32 -15 -64 -36 c-90 -50
-119 -59 -159 -52 -31 6 -826 377 -843 393 -4 4 11 44 32 90 38 80 40 82 67
75 100 -28 226 17 276 99 57 92 34 196 -63 280 l-51 45 38 79 c30 63 38 90 37
134 -3 204 -323 463 -664 536 -87 18 -214 18 -281 -2 -61 -18 -131 -82 -143
-130 -4 -16 -123 -393 -264 -839 -184 -583 -256 -823 -256 -856 0 -28 8 -60
21 -82 17 -28 20 -43 13 -72 -5 -21 -6 -54 -3 -74 6 -40 46 -126 64 -136 7 -5
8 -24 4 -56 -9 -63 7 -110 50 -148 75 -66 165 -64 232 5 39 40 47 44 91 44 63
0 136 22 195 60 26 16 59 30 73 30 35 0 85 23 110 51 12 13 61 110 109 214 48
105 89 191 90 193 2 2 234 -95 516 -215 l513 -218 -544 -3 -545 -2 -50 -49
c-106 -102 -209 -151 -329 -156 -44 -2 -72 -8 -77 -17 -14 -22 -11 -124 5
-137 10 -8 394 -10 1442 -9 l1429 3 3 174 c2 133 -1 176 -10 183 -7 4 -231 8
-496 8 -469 0 -485 -1 -512 -20 -93 -66 -180 -77 -252 -31 -50 32 -76 60 -42
47 69 -28 137 -30 189 -4 11 6 154 96 318 201 178 114 306 202 319 220 29 41
36 123 13 170 -12 26 -61 71 -169 155 -199 156 -190 151 -217 127 -25 -22 -19
-8 17 40 43 59 84 156 130 307 25 84 60 180 77 213 48 91 138 173 254 233 128
66 183 115 225 200 l33 67 0 269 0 269 -28 21 c-21 15 -50 23 -110 28 -170 14
-264 17 -317 8z m279 -81 l99 -12 7 -144 c8 -148 1 -300 -16 -365 -16 -63 -89
-131 -202 -190 -81 -42 -119 -70 -183 -133 -97 -97 -136 -171 -189 -360 -69
-247 -148 -362 -299 -435 -105 -50 -197 -74 -259 -66 -50 5 -188 79 -309 165
l-56 40 -84 -14 c-46 -7 -86 -11 -90 -8 -13 7 -9 23 6 23 34 0 180 85 231 134
105 104 96 208 -35 365 l-50 60 73 48 c51 34 97 55 157 72 155 42 259 99 363
200 76 73 127 148 186 274 87 185 186 288 320 334 76 26 173 29 330 12z
m-2181 -275 c295 -60 602 -299 602 -468 0 -227 -554 -126 -827 152 -82 83
-117 150 -111 213 3 28 13 58 23 69 43 48 177 62 313 34z m-364 -263 c24 -46
111 -135 184 -189 96 -71 200 -125 327 -169 106 -36 115 -37 246 -38 l135 0
-27 -60 c-15 -33 -95 -206 -179 -385 -83 -179 -219 -473 -303 -654 -176 -380
-160 -362 -296 -351 -246 20 -418 106 -538 268 -26 36 -43 70 -43 86 0 15 101
349 225 742 270 854 246 779 251 779 2 0 10 -13 18 -29z m984 -531 c82 -79 67
-172 -35 -224 -33 -16 -109 -21 -129 -8 -8 5 8 49 50 140 33 72 63 132 66 132
3 0 25 -18 48 -40z m94 -737 l413 -196 75 -1 c79 -1 91 4 263 108 15 9 21 7
33 -8 37 -51 10 -90 -128 -186 -74 -51 -111 -70 -134 -70 -20 0 -192 77 -499
225 -258 124 -470 227 -473 229 -4 5 28 96 34 96 2 0 189 -89 416 -197z m1081
44 c70 -55 134 -109 142 -121 23 -32 18 -72 -12 -105 -16 -16 -136 -98 -268
-182 -343 -219 -343 -219 -387 -219 -28 0 -187 63 -571 226 -293 124 -535 228
-539 230 -8 5 58 148 71 152 4 1 192 -86 417 -194 544 -261 532 -256 574 -261
20 -3 51 1 70 10 52 22 247 164 266 193 10 14 19 47 22 74 4 40 -1 60 -28 115
-28 57 -35 65 -54 59 -26 -8 -27 -9 69 69 44 36 84 63 90 59 5 -3 68 -51 138
-105z m-2459 -593 c62 -37 218 -94 255 -94 40 0 21 -19 -26 -26 -141 -21 -319
60 -372 170 -36 74 -27 83 31 31 28 -25 78 -62 112 -81z m30 -174 c37 -12 38
-14 21 -26 -24 -18 -85 -18 -107 0 -21 16 -49 67 -42 77 2 4 23 -3 47 -16 23
-12 60 -28 81 -35z m1774 -5 c48 -40 101 -58 171 -58 54 0 75 6 145 42 l81 41
435 -2 435 -3 3 -112 3 -113 -1371 0 c-907 0 -1370 3 -1370 10 0 6 15 10 33
10 88 0 220 61 324 151 l68 58 507 0 506 1 30 -25z"/>
<path d="M28 1933 c-9 -2 -20 -14 -24 -25 -8 -25 -95 63 946 -948 388 -377
769 -747 846 -822 l142 -138 136 0 c128 0 136 1 147 21 9 17 8 26 -7 44 -22
27 -1792 1747 -1877 1823 l-57 52 -118 -1 c-64 -1 -125 -3 -134 -6z m1068
-883 c455 -443 866 -842 913 -887 l86 -82 -66 -1 -66 0 -804 781 c-442 429
-853 830 -914 890 l-110 110 66 -3 67 -3 828 -805z"/>
<path d="M983 1738 c-6 -7 -32 -66 -58 -130 l-47 -118 26 -45 c39 -66 111
-115 211 -141 102 -28 104 -27 184 95 93 140 93 153 -1 163 -135 13 -200 48
-246 133 -28 51 -51 66 -69 43z m58 -154 c30 -34 130 -81 185 -90 l43 -6 -40
-59 c-44 -65 -56 -70 -130 -44 -49 18 -103 56 -124 89 -13 20 -12 28 8 79 12
31 25 57 28 57 3 0 16 -12 30 -26z"/>
<path d="M1483 1343 c-8 -3 -13 -23 -13 -51 0 -26 -4 -52 -8 -58 -15 -23 -53
-34 -120 -34 -75 0 -99 -13 -88 -48 6 -18 67 -79 149 -150 l38 -32 1489 0
c1340 0 1490 2 1504 16 13 13 16 44 16 178 0 113 -4 166 -12 174 -9 9 -350 12
-1477 11 -807 0 -1472 -3 -1478 -6z m2887 -183 l0 -110 -1458 0 -1458 0 -33
34 -34 35 41 11 c56 15 100 54 112 101 l11 39 1409 0 1410 0 0 -110z"/>
<path d="M1527 883 c-4 -3 -7 -15 -7 -26 0 -20 26 -50 213 -244 l88 -93 1299
0 c1167 0 1300 2 1314 16 13 13 16 43 16 169 0 84 -3 160 -6 169 -6 15 -143
16 -1458 16 -799 0 -1456 -3 -1459 -7z m2843 -173 l0 -110 -1262 0 -1263 0
-103 110 -103 110 1365 0 1366 0 0 -110z"/>
</g>
</svg>
