<?xml version="1.0" standalone="no"?>
<!DOCTYPE svg PUBLIC "-//W3C//DTD SVG 20010904//EN"
 "http://www.w3.org/TR/2001/REC-SVG-20010904/DTD/svg10.dtd">
<svg version="1.0" xmlns="http://www.w3.org/2000/svg"
 width="300.000000px" height="300.000000pt" viewBox="0 0 448.000000 445.000000"
 preserveAspectRatio="xMidYMid meet">

<g transform="translate(0.000000,445.000000) scale(0.100000,-0.100000)"
fill="#0a4334" stroke="none">
<path d="M687 4378 c-291 -523 -336 -612 -348 -680 -31 -173 56 -340 219 -420
62 -31 74 -33 167 -33 93 0 105 2 167 33 197 97 281 333 185 522 -45 89 -339
625 -347 633 -4 5 -24 -20 -43 -55z m179 -348 c70 -129 137 -253 148 -275 31
-59 29 -192 -3 -257 -97 -197 -355 -243 -507 -89 -78 77 -111 194 -85 297 7
26 64 142 128 258 169 309 175 318 183 309 4 -4 65 -114 136 -243z"/>
<path d="M2053 4107 c-100 -182 -186 -350 -192 -372 -17 -63 -13 -169 8 -231
106 -301 510 -357 692 -97 53 77 72 147 67 249 -5 96 15 52 -233 508 -82 152
-152 276 -155 276 -3 0 -87 -150 -187 -333z m252 61 c33 -61 97 -179 143 -262
98 -177 118 -239 103 -323 -21 -113 -83 -193 -184 -239 -206 -92 -441 61 -439
286 0 36 6 81 14 102 15 42 291 548 298 548 3 0 32 -51 65 -112z"/>
<path d="M3707 4398 c-67 -117 -313 -570 -336 -618 -22 -47 -26 -69 -26 -150
0 -86 3 -101 31 -160 41 -86 108 -153 192 -193 61 -29 75 -32 167 -32 88 0
107 3 157 27 196 91 289 336 199 518 -34 67 -344 635 -351 643 -5 5 -19 -11
-33 -35z m176 -386 c80 -148 151 -290 158 -316 26 -102 -12 -218 -97 -295
-202 -185 -524 -44 -524 228 0 32 7 77 15 100 19 54 290 551 300 551 1 0 68
-121 148 -268z"/>
<path d="M0 2110 l0 -690 998 0 c949 0 999 -1 1037 -19 111 -51 154 -174 101
-286 -12 -27 -74 -142 -136 -255 -135 -246 -150 -285 -150 -396 0 -221 133
-393 347 -449 229 -60 473 78 544 306 23 75 25 195 3 270 -8 30 -33 83 -54
119 -21 36 -82 146 -136 245 -105 194 -119 243 -94 320 16 49 66 104 115 126
38 18 92 19 973 19 l932 0 0 690 0 690 -2240 0 -2240 0 0 -690z m2291 590 c10
-6 19 -19 19 -29 0 -10 -43 -74 -95 -141 -52 -67 -95 -125 -95 -127 0 -3 45
-66 100 -140 55 -75 100 -145 100 -157 0 -12 -39 -70 -86 -131 -47 -60 -93
-120 -101 -132 -14 -21 -10 -28 74 -140 109 -144 114 -152 102 -175 -9 -17
-66 -18 -1102 -18 -837 0 -1096 3 -1105 12 -9 9 -12 153 -12 584 0 507 2 574
16 588 14 14 126 16 1090 16 722 0 1082 -3 1095 -10z m2083 -6 c14 -14 16 -81
16 -588 0 -431 -3 -575 -12 -584 -9 -9 -240 -12 -977 -12 -532 0 -971 4 -977
8 -20 14 -224 291 -224 305 0 8 45 74 101 146 55 73 99 138 96 145 -3 7 -48
72 -101 143 -53 72 -96 137 -96 145 0 16 187 261 222 291 19 16 80 17 978 17
858 0 960 -2 974 -16z m-1964 -1294 c8 -15 6 -29 -11 -62 -29 -57 -37 -161
-17 -220 9 -24 68 -141 133 -259 65 -117 127 -232 139 -254 17 -33 21 -58 21
-140 0 -88 -3 -107 -27 -157 -111 -237 -407 -298 -596 -123 -79 73 -114 145
-120 247 -3 44 1 98 7 125 7 26 63 140 125 253 181 328 171 304 171 395 0 62
-6 92 -24 132 -33 75 -24 83 95 83 83 0 94 -2 104 -20z"/>
<path d="M320 2325 l0 -75 115 0 115 0 0 75 0 75 -115 0 -115 0 0 -75z"/>
<path d="M730 2325 l0 -75 115 0 115 0 0 75 0 75 -115 0 -115 0 0 -75z"/>
<path d="M1140 2325 l0 -75 115 0 115 0 0 75 0 75 -115 0 -115 0 0 -75z"/>
<path d="M1550 2325 l0 -75 115 0 115 0 0 75 0 75 -115 0 -115 0 0 -75z"/>
<path d="M320 1900 l0 -81 113 3 112 3 0 75 0 75 -112 3 -113 3 0 -81z"/>
<path d="M730 1900 l0 -81 113 3 112 3 0 75 0 75 -112 3 -113 3 0 -81z"/>
<path d="M1140 1900 l0 -81 113 3 112 3 0 75 0 75 -112 3 -113 3 0 -81z"/>
<path d="M1550 1900 l0 -81 113 3 112 3 0 75 0 75 -112 3 -113 3 0 -81z"/>
<path d="M2640 2325 l0 -75 115 0 115 0 0 75 0 75 -115 0 -115 0 0 -75z"/>
<path d="M3050 2325 l0 -75 115 0 115 0 0 75 0 75 -115 0 -115 0 0 -75z"/>
<path d="M3460 2325 l0 -75 115 0 115 0 0 75 0 75 -115 0 -115 0 0 -75z"/>
<path d="M3870 2325 l0 -75 115 0 115 0 0 75 0 75 -115 0 -115 0 0 -75z"/>
<path d="M2644 1966 c-3 -7 -4 -42 -2 -77 l3 -64 113 -3 112 -3 0 81 0 80
-110 0 c-84 0 -112 -3 -116 -14z"/>
<path d="M3054 1966 c-3 -7 -4 -42 -2 -77 l3 -64 113 -3 112 -3 0 81 0 80
-110 0 c-84 0 -112 -3 -116 -14z"/>
<path d="M3464 1966 c-3 -7 -4 -42 -2 -77 l3 -64 113 -3 112 -3 0 81 0 80
-110 0 c-84 0 -112 -3 -116 -14z"/>
<path d="M3874 1966 c-3 -7 -4 -42 -2 -77 l3 -64 113 -3 112 -3 0 81 0 80
-110 0 c-84 0 -112 -3 -116 -14z"/>
</g>
</svg>
