<?xml version="1.0" standalone="no"?>
<!DOCTYPE svg PUBLIC "-//W3C//DTD SVG 20010904//EN"
 "http://www.w3.org/TR/2001/REC-SVG-20010904/DTD/svg10.dtd">
<svg version="1.0" xmlns="http://www.w3.org/2000/svg"
 width="512.000000pt" height="512.000000pt" viewBox="0 0 512.000000 512.000000"
 preserveAspectRatio="xMidYMid meet">

<g transform="translate(0.000000,512.000000) scale(0.100000,-0.100000)"
fill="#0a4334" stroke="none">
<path d="M2340 5114 c-749 -42 -1216 -122 -1561 -270 -172 -73 -296 -179 -323
-277 -39 -138 -45 -685 -12 -914 14 -92 37 -208 52 -256 5 -17 2 -16 -38 4
-108 54 -178 126 -178 183 0 36 -41 76 -78 76 -118 0 -97 -170 36 -291 58 -53
145 -106 257 -155 70 -31 70 -31 118 -120 66 -121 144 -223 244 -321 138 -133
286 -231 650 -429 377 -206 497 -289 688 -478 l120 -118 -40 -10 c-63 -15
-563 -3 -671 16 -178 31 -282 75 -320 136 -52 83 -88 98 -138 59 -48 -37 -34
-109 36 -186 74 -80 211 -133 438 -170 116 -18 550 -24 717 -10 l92 8 37 -66
c97 -174 143 -336 151 -536 4 -95 2 -138 -5 -143 -29 -17 -136 68 -159 126
-17 43 -38 58 -82 58 -35 0 -71 -39 -71 -78 0 -74 99 -186 218 -246 l71 -36
-26 -82 c-46 -152 -103 -280 -185 -420 -47 -79 -48 -120 -6 -151 25 -19 32
-19 105 -8 389 61 825 238 1151 469 60 42 69 45 154 53 250 23 424 86 562 201
59 50 146 181 146 219 0 35 -39 79 -70 79 -35 0 -58 -18 -93 -73 -40 -62 -115
-133 -177 -170 -47 -27 -186 -77 -215 -77 -10 0 21 42 82 110 336 380 493 754
494 1176 l0 133 67 37 c211 116 380 261 417 357 26 68 17 152 -21 214 -64 104
-187 162 -360 171 -100 4 -101 4 -122 -23 -28 -36 -28 -70 1 -99 19 -19 38
-24 105 -30 179 -15 281 -83 252 -170 -20 -63 -180 -195 -318 -265 -24 -12
-45 -21 -46 -19 -1 2 -26 77 -55 167 -63 199 -85 331 -77 456 11 169 5 158
109 196 274 98 449 235 493 387 27 92 0 152 -69 152 -35 0 -77 -40 -77 -75 0
-81 -90 -170 -253 -250 -61 -30 -113 -53 -115 -50 -5 4 54 123 234 475 119
231 176 385 215 570 43 212 29 272 -86 378 -207 189 -724 325 -1475 387 -173
15 -841 27 -990 19z m830 -164 c618 -39 1142 -140 1405 -272 138 -70 193 -127
180 -189 -8 -35 -75 -96 -149 -135 l-54 -28 -109 36 c-430 145 -1027 220
-1753 220 -700 0 -1293 -69 -1705 -199 -60 -19 -126 -39 -146 -45 -31 -10 -42
-8 -85 13 -66 32 -154 118 -154 150 0 195 687 392 1565 448 191 12 815 13
1005 1z m-115 -530 c449 -22 835 -72 1130 -146 54 -14 104 -28 109 -32 21 -13
-326 -89 -554 -121 -583 -83 -1307 -92 -1930 -25 -283 31 -758 123 -745 144 7
12 236 65 407 95 437 77 1065 110 1583 85z m-2230 -270 c675 -263 2051 -335
3090 -160 285 48 530 116 704 196 41 19 76 32 79 29 15 -15 -125 -336 -222
-508 -100 -179 -111 -202 -177 -357 l-56 -135 -114 -27 c-212 -52 -485 -91
-824 -120 -202 -17 -1054 -17 -1275 0 -505 39 -957 113 -1243 202 -113 36
-109 30 -151 202 -42 168 -56 315 -56 573 l0 234 72 -45 c40 -24 118 -62 173
-84z m-5 -1050 c19 -6 103 -26 186 -45 535 -123 1300 -183 1988 -157 280 11
513 28 666 48 157 20 330 48 428 69 63 14 114 25 115 25 1 0 1 -63 -1 -140 -4
-175 12 -273 78 -474 73 -226 81 -194 -70 -255 -300 -120 -613 -218 -920 -286
-188 -41 -517 -98 -674 -116 l-109 -13 -50 60 c-94 111 -282 290 -389 369
-120 90 -177 125 -403 250 -458 252 -580 331 -715 465 -68 69 -182 210 -168
210 2 0 19 -5 38 -10z m3537 -1152 c-24 -435 -232 -833 -616 -1180 l-96 -88
-121 0 c-222 0 -459 26 -663 72 l-93 22 6 100 c14 215 -38 465 -139 667 l-33
65 181 27 c520 76 1020 206 1447 376 69 27 127 50 129 50 2 1 1 -50 -2 -111z
m-1461 -1363 c140 -29 351 -55 442 -55 46 0 63 -3 60 -12 -7 -21 -334 -181
-463 -227 -112 -40 -325 -101 -352 -101 -7 0 7 39 32 93 45 94 115 291 115
322 0 13 5 16 23 11 12 -3 76 -17 143 -31z"/>
<path d="M3855 4718 c-47 -27 -59 -79 -27 -118 14 -18 49 -28 192 -56 215 -42
232 -42 259 -8 27 34 27 67 -1 98 -20 22 -45 29 -178 55 -219 41 -223 42 -245
29z"/>
<path d="M3990 3719 c-261 -65 -635 -107 -1038 -117 -251 -7 -254 -7 -273 -31
-29 -35 -25 -85 9 -112 27 -21 30 -21 262 -15 129 3 291 11 360 16 405 33 847
116 886 167 36 48 -2 124 -62 122 -16 -1 -81 -14 -144 -30z"/>
<path d="M1922 3637 c-29 -31 -29 -77 1 -105 18 -17 51 -26 153 -41 194 -30
266 -34 286 -18 40 32 42 95 5 126 -14 11 -336 61 -398 61 -14 0 -35 -10 -47
-23z"/>
<path d="M3273 2716 c-111 -17 -166 -30 -206 -50 -162 -79 -248 -235 -233
-420 l7 -81 -37 -35 c-20 -19 -40 -45 -45 -57 -19 -49 36 -112 86 -99 14 4 44
23 66 44 l41 37 112 0 c92 0 121 4 169 24 101 40 207 158 238 264 9 30 49 296
49 325 0 20 -56 72 -77 71 -10 -1 -86 -11 -170 -23z m71 -188 c-22 -159 -40
-204 -100 -258 -39 -34 -91 -60 -121 -60 -13 0 -10 7 15 33 17 18 34 47 38 64
5 27 1 37 -24 63 -17 16 -40 30 -51 30 -12 0 -42 -19 -66 -41 -49 -45 -57 -37
-30 28 23 56 61 100 109 128 37 22 78 31 229 54 4 0 5 -18 1 -41z"/>
<path d="M3805 1604 c-174 -72 -396 -123 -670 -155 -99 -11 -191 -26 -205 -33
-52 -25 -48 -110 6 -135 48 -21 426 32 671 94 174 45 336 108 363 142 27 34
25 69 -5 98 -32 33 -61 30 -160 -11z"/>
<path d="M580 2574 c-88 -24 -155 -71 -264 -187 -160 -171 -159 -179 34 -284
157 -85 209 -103 300 -103 118 0 235 51 308 134 51 58 114 192 107 226 -8 37
-126 150 -190 182 -94 48 -196 59 -295 32z m210 -165 c50 -22 100 -66 100 -86
0 -25 -50 -93 -91 -122 -47 -35 -132 -55 -186 -45 -38 7 -187 76 -197 92 -10
16 104 130 156 156 66 33 152 35 218 5z"/>
<path d="M1300 1190 c-159 -26 -159 -26 -177 -65 -16 -34 -16 -35 27 -132 23
-54 58 -129 77 -167 103 -205 339 -288 547 -193 l52 24 54 -29 c81 -43 140
-21 140 53 0 40 -14 57 -83 93 -33 18 -36 25 -47 85 -23 139 -102 246 -227
308 -66 33 -84 37 -161 39 -51 2 -135 -5 -202 -16z m310 -171 c40 -22 117
-106 106 -116 -2 -2 -22 5 -45 16 -51 26 -72 26 -105 0 -20 -16 -26 -29 -26
-58 0 -41 13 -57 70 -87 l35 -19 -40 -3 c-52 -5 -109 13 -162 49 -34 24 -52
49 -89 124 -26 52 -44 98 -40 102 12 12 169 29 211 23 23 -4 61 -17 85 -31z"/>
</g>
</svg>
